<svg xmlns="http://www.w3.org/2000/svg" viewBox="0 0 1024 1024"><path d="M512 640.118a128.118 128.118 0 1 1 128.118-128.118A128.27 128.27 0 0 1 512 640.118zm0-240.246a112.128 112.128 0 1 0 112.128 112.128 112.256 112.256 0 0 0-112.128-112.128z" fill=""/><path d="M512 768.182a256.182 256.182 0 1 1 256.182-256.182A256.48 256.48 0 0 1 512 768.182zm0-496.374a240.192 240.192 0 1 0 240.192 240.192A240.474 240.474 0 0 0 512 271.808z" fill=""/><path d="M512 896.246a384.246 384.246 0 1 1 384.246-384.246A384.686 384.686 0 0 1 512 896.246zm0-752.5a368.256 368.256 0 1 0 368.256 368.256A368.686 368.686 0 0 0 512 143.746z" fill=""/><path d="M512 1024C229.23 1024 0 794.77 0 512S229.23 0 512 0s512 229.23 512 512-229.23 512-512 512zm0-1008C240.18 16 16 240.18 16 512s224.18 496 496 496 496-224.18 496-496S783.82 16 512 16z" fill=""/><path d="M596.854 596.854c-38.378 38.378-88.958 54.912-139.538 48.376a7.99 7.99 0 0 1-6.872-8.948 7.99 7.99 0 0 1 8.948-6.872c43.742 5.73 87.486-8.234 119.47-40.218 36.864-36.864 44.702-96.406 17.55-143.248a7.99 7.99 0 0 1 10.93-10.93 7.99 7.99 0 0 1 2.904 10.93c-31.564 51.564-23.726 120.01 16.536 160.388 12.444 12.444 28.808 18.69 45.172 18.69 16.364 0 32.726-6.246 45.172-18.69 24.92-24.92 24.92-65.462 0-90.382-14.38-14.404-34.132-21.016-54.304-18.114a8.002 8.002 0 0 1-6.778-9.056c0.624-4.372 4.676-7.4 9.056-6.776 25.088 3.53 48.376 14.16 65.462 31.246 33.29 33.29 40.064 84.854 16.536-125.434a7.99 7.99 0 0 1 2.904-10.93 8.02 8.02 0 0 1 10.93 2.904c27.152 46.842 19.314 106.384-19.064 144.764-23.378 23.362-54.072 35.01-84.754 35.042z" fill=""/><path d="M512 599.872c-16.364 0-32.726-6.246-45.172-18.674-24.92-24.952-24.92-65.494 0-90.412 14.38-14.404 34.132-21.016 54.304-18.114 4.374 0.632 7.402 4.684 6.778 9.056s-4.592 7.4-9.056 6.776c-15.098-2.21-29.932 2.772-40.72 13.584-18.69 18.69-18.69 49.098 0 67.804 18.69 18.674 49.09 18.642 67.78 0 10.804-10.836 15.754-25.702 13.568-40.784a8.002 8.002 0 0 1 6.762-9.048c4.386-0.546 8.432 2.404 9.056 6.776 2.918 20.104-3.67 39.902-18.082 54.362-12.476 12.426-28.84 18.674-45.218 18.674zM615.926 967.672H408.074a7.982 7.982 0 0 1-5.652-2.344l-31.978-31.976a7.988 7.988 0 0 1-2.342-5.652v-111.92a7.98 7.98 0 0 1 7.994-7.994h271.806a7.978 7.978 0 0 1 7.994 7.994v111.92a7.992 7.992 0 0 1-2.342 5.652l-31.976 31.976a7.99 7.99 0 0 1-5.652 2.344z m-204.542-15.99h201.232l27.292-27.292v-100.616H384.09v100.616l27.294 27.292z" fill=""/><path d="M360.108 871.738a7.988 7.988 0 0 1-7.978-7.588c-0.234-4.402 3.154-8.15 7.556-8.4l303.784-15.988c4.374-0.562 8.166 3.154 8.4 7.558a7.98 7.98 0 0 1-7.556 8.398l-303.784 15.988c-0.142 0.032-0.282 0.032-0.422 0.032zM360.108 919.706a7.99 7.99 0 0 1-7.978-7.588c-0.234-4.404 3.154-8.15 7.556-8.4l303.784-15.988c4.374-0.532 8.166 3.154 8.4 7.556s-3.152 8.182-7.556 8.4l-303.784 15.988c-0.142 0.032-0.282 0.032-0.422 0.032zM647.902 823.774H376.096a8 8 0 0 1-7.994-7.994v-49.56c-80.176-50.122-127.908-135.84-127.908-230.242 0-149.892 121.928-271.83 271.806-271.83 149.876 0 271.804 121.936 271.804 271.83 0 94.402-47.73 180.152-127.908 230.242v49.558a8 8 0 0 1-7.994 7.996z m-263.812-15.988h255.818v-46.03c0-2.81 1.468-5.402 3.856-6.872 77.68-46.81 124.052-128.658 124.052-218.906 0-141.07-114.762-255.84-255.816-255.84-141.056 0-255.818 114.77-255.818 255.84 0 90.248 46.374 172.096 124.052 218.938a7.98 7.98 0 0 1 3.856 6.84v46.03zM512 999.648c-60.208 0-78.352-34.914-79.1-36.412a7.982 7.982 0 0 1 3.576-10.71 7.94 7.94 0 0 1 10.696 3.53c0.702 1.31 15.254 27.606 64.83 27.606 49.76 0 64.234-26.514 64.828-27.636 2.044-3.874 6.838-5.434 10.742-3.436s5.48 6.744 3.53 10.648c-0.752 1.496-18.894 36.41-79.102 36.41zM168.26 543.972H8.36a7.998 7.998 0 0 1-7.994-7.994 7.986 7.986 0 0 1 7.994-8.002h159.9a7.988 7.988 0 0 1 7.996 8.002 8 8 0 0 1-7.996 7.994zM1015.64 543.972h-159.886a8 8 0 0 1 0-15.996h159.886a8 8 0 0 1 0 15.996zM46.708 736.71a8.01 8.01 0 0 1-7.386-4.934 8.01 8.01 0 0 1 4.326-10.46l147.722-61.208a8 8 0 0 1 10.446 4.34 7.988 7.988 0 0 1-4.324 10.43l-147.724 61.208c-1 0.438-2.048 0.624-3.06 0.624zM829.586 412.402a7.98 7.98 0 0 1-7.386-4.934 8 8 0 0 1 4.326-10.446l147.708-61.176a8.008 8.008 0 0 1 10.446 4.326 8 8 0 0 1-4.324 10.446l-147.708 61.174a7.994 7.994 0 0 1-3.062 0.61zM155.878 900.094a7.97 7.97 0 0 1-5.652-2.342 7.988 7.988 0 0 1 0-11.304l113.06-113.076a7.992 7.992 0 1 1 11.304 11.304l-113.06 113.076a7.974 7.974 0 0 1-5.652 2.342zM643.56 226.378a7.998 7.998 0 0 1-7.384-11.054l61.176-147.708a7.992 7.992 0 1 1 14.772 6.122l-61.176 147.708a8.012 8.012 0 0 1-7.388 4.932zM512.016 200.21a7.99 7.99 0 0 1-7.996-7.994V32.346a7.99 7.99 0 0 1 7.996-7.994 7.99 7.99 0 0 1 7.994 7.994v159.872a7.99 7.99 0 0 1-7.994 7.992zM380.468 226.378a7.98 7.98 0 0 1-7.386-4.934l-61.174-147.708a8 8 0 0 1 4.324-10.446 8.006 8.006 0 0 1 10.446 4.324l61.174 147.708a8 8 0 0 1-7.384 11.056zM868.12 900.094a7.978 7.978 0 0 1-5.652-2.342l-113.074-113.076a7.992 7.992 0 1 1 11.304-11.304l113.074 113.076a7.988 7.988 0 0 1 0 11.304 7.974 7.974 0 0 1-5.652 2.342zM268.954 300.888a7.966 7.966 0 0 1-5.652-2.342L150.258 185.502a7.988 7.988 0 0 1 0-11.304 7.988 7.988 0 0 1 11.304 0l113.044 113.044a7.992 7.992 0 0 1-5.652 13.646zM977.292 736.71c-1.032 0-2.06-0.188-3.06-0.624l-147.738-61.208a7.988 7.988 0 0 1-4.326-10.43c1.688-4.09 6.386-6.058 10.448-4.34l147.738 61.208a8.012 8.012 0 0 1 4.324 10.46 8.04 8.04 0 0 1-7.386 4.934zM194.446 412.402a7.938 7.938 0 0 1-3.06-0.608L43.678 350.62a8 8 0 0 1-4.326-10.446 8.006 8.006 0 0 1 10.446-4.326l147.708 61.176a8 8 0 0 1 4.324 10.446 8.012 8.012 0 0 1-7.384 4.932z" fill=""/><path d="M512.046 543.972a7.97 7.97 0 0 1-5.652-2.342 7.988 7.988 0 0 1 0-11.304L866.09 170.608a7.988 7.988 0 0 1 11.304 0 7.988 7.988 0 0 1 0 11.304l-359.698 359.72a7.964 7.964 0 0 1-5.65 2.34z" fill=""/><path d="M769.83 286.118a7.986 7.986 0 0 1-7.992-7.986 7.992 7.992 0 0 1 7.976-8.002l41.94-0.032 65.954-65.96-23.374-4.012a7.982 7.982 0 0 1-6.528-9.228c0.75-4.348 4.902-7.284 9.226-6.526l38.598 6.62c2.954 0.5 5.372 2.608 6.278 5.458s0.14 5.958-1.966 8.072l-79.224 79.224a7.988 7.988 0 0 1-5.652 2.342l-45.236 0.03z" fill=""/><path d="M769.83 286.118a7.994 7.994 0 0 1-7.992-7.994l0.016-45.25c0-2.124 0.842-4.154 2.34-5.652l79.102-79.1a7.974 7.974 0 0 1 8.056-1.966 7.986 7.986 0 0 1 5.464 6.236l6.744 38.472a7.992 7.992 0 0 1-6.496 9.26c-4.324 0.718-8.492-2.146-9.258-6.496l-4.09-23.326-65.876 65.882-0.016 41.938a8 8 0 0 1-7.994 7.996z" fill=""/></svg>
